<?xml version="1.0" encoding="utf-8"?>
<!-- Generated by Mocodo 4.2.15 -->
<svg width="603" height="771" viewBox="0 0 603 771" xmlns="http://www.w3.org/2000/svg">
<rect x="0" y="0" width="603" height="771" fill="#ffffbf" stroke="none" stroke-width="0"/>

<!-- Association AVOIRAPE -->
<g>
	<line x1="204" y1="254" x2="204" y2="94" stroke="#74add1" stroke-width="2"/>
	<line x1="334" y1="94" x2="204" y2="94" stroke="#74add1" stroke-width="2"/>
	<g>
		<path d="M225 69 a14 14 90 0 1 14 14 V94 h-70 V83 a14 14 90 0 1 14 -14" fill="#abd9e9" stroke="#abd9e9" stroke-width="0"/>
		<path d="M239 94 v11 a14 14 90 0 1 -14 14 H183 a14 14 90 0 1 -14 -14 V94 H70" fill="#e0f3f8" stroke="#e0f3f8" stroke-width="0"/>
		<rect x="169" y="69" width="70" height="50" fill="none" rx="14" stroke="#74add1" stroke-width="2"/>
		<line x1="169" y1="94" x2="239" y2="94" stroke="#74add1" stroke-width="1"/>
		<text x="177" y="86.75" fill="#000000" font-family="Verdana" font-size="12">AvoirApe</text>
	</g>
	<text x="178" y="187" fill="#d73027" font-family="Verdana" font-size="12">1,1</text>
	<text x="272" y="111" fill="#d73027" font-family="Verdana" font-size="12">1,N</text>
</g>

<!-- Association FAIRECHIFFREAFFER -->
<g>
	<line x1="204" y1="254" x2="503" y2="94" stroke="#74add1" stroke-width="2"/>
	<line x1="503" y1="254" x2="503" y2="94" stroke="#74add1" stroke-width="2"/>
	<g>
		<path d="M545 69 a14 14 90 0 1 14 14 V94 h-112 V83 a14 14 90 0 1 14 -14" fill="#abd9e9" stroke="#abd9e9" stroke-width="0"/>
		<path d="M559 94 v11 a14 14 90 0 1 -14 14 H461 a14 14 90 0 1 -14 -14 V94 H112" fill="#e0f3f8" stroke="#e0f3f8" stroke-width="0"/>
		<rect x="447" y="69" width="112" height="50" fill="none" rx="14" stroke="#74add1" stroke-width="2"/>
		<line x1="447" y1="94" x2="559" y2="94" stroke="#74add1" stroke-width="1"/>
		<text x="455" y="86.75" fill="#000000" font-family="Verdana" font-size="12">faireChiffreAffer</text>
		<text x="454" y="111.8" fill="#000000" font-family="Verdana" font-size="12">Annee</text>
	</g>
	<text x="257" y="241.14" fill="#d73027" font-family="Verdana" font-size="12">1,1</text>
	<text x="508" y="136" fill="#d73027" font-family="Verdana" font-size="12">1,N</text>
</g>

<!-- Association RECEVOURSUB -->
<g>
	<line x1="204" y1="254" x2="67" y2="254" stroke="#74add1" stroke-width="2"/>
	<line x1="67" y1="94" x2="67" y2="254" stroke="#74add1" stroke-width="2"/>
	<g>
		<path d="M99 229 a14 14 90 0 1 14 14 V254 h-92 V243 a14 14 90 0 1 14 -14" fill="#abd9e9" stroke="#abd9e9" stroke-width="0"/>
		<path d="M113 254 v11 a14 14 90 0 1 -14 14 H35 a14 14 90 0 1 -14 -14 V254 H92" fill="#e0f3f8" stroke="#e0f3f8" stroke-width="0"/>
		<rect x="21" y="229" width="92" height="50" fill="none" rx="14" stroke="#74add1" stroke-width="2"/>
		<line x1="21" y1="254" x2="113" y2="254" stroke="#74add1" stroke-width="1"/>
		<text x="29" y="246.75" fill="#000000" font-family="Verdana" font-size="12">recevourSub</text>
		<text x="28" y="271.8" fill="#000000" font-family="Verdana" font-size="12">Annee</text>
	</g>
	<text x="130" y="246" fill="#d73027" font-family="Verdana" font-size="12">1,1</text>
	<text x="72" y="145" fill="#d73027" font-family="Verdana" font-size="12">1,N</text>
</g>

<!-- Association PAYERCHARGE -->
<g>
	<line x1="204" y1="254" x2="334" y2="254" stroke="#74add1" stroke-width="2"/>
	<line x1="334" y1="406" x2="334" y2="254" stroke="#74add1" stroke-width="2"/>
	<g>
		<path d="M366 229 a14 14 90 0 1 14 14 V254 h-92 V243 a14 14 90 0 1 14 -14" fill="#abd9e9" stroke="#abd9e9" stroke-width="0"/>
		<path d="M380 254 v11 a14 14 90 0 1 -14 14 H302 a14 14 90 0 1 -14 -14 V254 H92" fill="#e0f3f8" stroke="#e0f3f8" stroke-width="0"/>
		<rect x="288" y="229" width="92" height="50" fill="none" rx="14" stroke="#74add1" stroke-width="2"/>
		<line x1="288" y1="254" x2="380" y2="254" stroke="#74add1" stroke-width="1"/>
		<text x="295" y="246.75" fill="#000000" font-family="Verdana" font-size="12">PayerCharge</text>
		<text x="295" y="271.8" fill="#000000" font-family="Verdana" font-size="12">Annee</text>
	</g>
	<text x="257" y="271" fill="#d73027" font-family="Verdana" font-size="12">1,1</text>
	<text x="339" y="296" fill="#d73027" font-family="Verdana" font-size="12">1,N</text>
</g>

<!-- Association EXPORTERPRODUIT -->
<g>
	<line x1="204" y1="254" x2="67" y2="406" stroke="#74add1" stroke-width="2"/>
	<line x1="204" y1="618" x2="67" y2="406" stroke="#74add1" stroke-width="2"/>
	<g>
		<path d="M108 381 a14 14 90 0 1 14 14 V406 h-110 V395 a14 14 90 0 1 14 -14" fill="#abd9e9" stroke="#abd9e9" stroke-width="0"/>
		<path d="M122 406 v11 a14 14 90 0 1 -14 14 H26 a14 14 90 0 1 -14 -14 V406 H110" fill="#e0f3f8" stroke="#e0f3f8" stroke-width="0"/>
		<rect x="12" y="381" width="110" height="50" fill="none" rx="14" stroke="#74add1" stroke-width="2"/>
		<line x1="12" y1="406" x2="122" y2="406" stroke="#74add1" stroke-width="1"/>
		<text x="20" y="398.75" fill="#000000" font-family="Verdana" font-size="12">ExporterProduit</text>
		<text x="19" y="423.8" fill="#000000" font-family="Verdana" font-size="12">Annee</text>
	</g>
	<text x="130" y="305.81" fill="#d73027" font-family="Verdana" font-size="12">1,1</text>
	<text x="129" y="555.75" fill="#d73027" font-family="Verdana" font-size="12">1,N</text>
</g>

<!-- Association VENDREPRODIUT -->
<g>
	<line x1="204" y1="254" x2="204" y2="406" stroke="#74add1" stroke-width="2"/>
	<line x1="204" y1="618" x2="204" y2="406" stroke="#74add1" stroke-width="2"/>
	<g>
		<path d="M240 381 a14 14 90 0 1 14 14 V406 h-100 V395 a14 14 90 0 1 14 -14" fill="#abd9e9" stroke="#abd9e9" stroke-width="0"/>
		<path d="M254 406 v11 a14 14 90 0 1 -14 14 H168 a14 14 90 0 1 -14 -14 V406 H100" fill="#e0f3f8" stroke="#e0f3f8" stroke-width="0"/>
		<rect x="154" y="381" width="100" height="50" fill="none" rx="14" stroke="#74add1" stroke-width="2"/>
		<line x1="154" y1="406" x2="254" y2="406" stroke="#74add1" stroke-width="1"/>
		<text x="161" y="398.75" fill="#000000" font-family="Verdana" font-size="12">VendreProdiut</text>
		<text x="161" y="423.8" fill="#000000" font-family="Verdana" font-size="12">Annee</text>
	</g>
	<text x="209" y="330" fill="#d73027" font-family="Verdana" font-size="12">1,1</text>
	<text x="209" y="466" fill="#d73027" font-family="Verdana" font-size="12">1,N</text>
</g>

<!-- Association COMPTABILITE -->
<g>
	<line x1="503" y1="618" x2="334" y2="618" stroke="#74add1" stroke-width="2"/>
	<line x1="204" y1="254" x2="334" y2="618" stroke="#74add1" stroke-width="2"/>
	<line x1="503" y1="254" x2="334" y2="618" stroke="#74add1" stroke-width="2"/>
	<line x1="204" y1="618" x2="334" y2="618" stroke="#74add1" stroke-width="2"/>
	<line x1="334" y1="406" x2="334" y2="618" stroke="#74add1" stroke-width="2"/>
	<g>
		<path d="M366 593 a14 14 90 0 1 14 14 V618 h-92 V607 a14 14 90 0 1 14 -14" fill="#abd9e9" stroke="#abd9e9" stroke-width="0"/>
		<path d="M380 618 v11 a14 14 90 0 1 -14 14 H302 a14 14 90 0 1 -14 -14 V618 H92" fill="#e0f3f8" stroke="#e0f3f8" stroke-width="0"/>
		<rect x="288" y="593" width="92" height="50" fill="none" rx="14" stroke="#74add1" stroke-width="2"/>
		<line x1="288" y1="618" x2="380" y2="618" stroke="#74add1" stroke-width="1"/>
		<text x="296" y="610.75" fill="#000000" font-family="Verdana" font-size="12">Comptabilite</text>
		<text x="295" y="635.8" fill="#000000" font-family="Verdana" font-size="12">Annee</text>
	</g>
	<text x="385" y="635" fill="#d73027" font-family="Verdana" font-size="12">1,N</text>
	<text x="201.86" y="330" fill="#d73027" font-family="Verdana" font-size="12">1,1</text>
	<text x="430" y="348.71" fill="#d73027" font-family="Verdana" font-size="12">1,N</text>
	<text x="257" y="635" fill="#d73027" font-family="Verdana" font-size="12">1,N</text>
	<text x="339" y="525" fill="#d73027" font-family="Verdana" font-size="12">1,N</text>
</g>

<!-- Entity SUBVANTION -->
<g>
	<g>
		<rect x="9" y="60" width="116" height="25" fill="#fdae61" stroke="none" stroke-width="0" opacity="1"/>
		<rect x="9" y="85" width="116" height="43" fill="#fee090" stroke="none" stroke-width="0" opacity="1"/>
		<rect x="9" y="60" width="116" height="68" fill="none" stroke="#f46d43" stroke-width="2" opacity="1"/>
		<line x1="9" y1="85" x2="125" y2="85" stroke="#f46d43" stroke-width="1"/>
	</g>
	<text x="33" y="77.75" fill="#000000" font-family="Verdana" font-size="12">Subvantion</text>
	<text x="14" y="102.8" fill="#000000" font-family="Verdana" font-size="12">Siren(FK)</text>
	<line x1="14" y1="105" x2="72" y2="105" stroke="#000000" stroke-width="1"/>
	<text x="14" y="119.8" fill="#000000" font-family="Verdana" font-size="12">SubvantionChifre</text>
</g>

<!-- Entity APEGEN -->
<g>
	<g>
		<rect x="299" y="9" width="70" height="25" fill="#fdae61" stroke="none" stroke-width="0" opacity="1"/>
		<rect x="299" y="34" width="70" height="145" fill="#fee090" stroke="none" stroke-width="0" opacity="1"/>
		<rect x="299" y="9" width="70" height="170" fill="none" stroke="#f46d43" stroke-width="2" opacity="1"/>
		<line x1="299" y1="34" x2="369" y2="34" stroke="#f46d43" stroke-width="1"/>
	</g>
	<text x="310" y="26.75" fill="#000000" font-family="Verdana" font-size="12">ApeGen</text>
	<text x="304" y="51.8" fill="#000000" font-family="Verdana" font-size="12">Ape</text>
	<line x1="304" y1="54" x2="328" y2="54" stroke="#000000" stroke-width="1"/>
	<text x="304" y="68.8" fill="#000000" font-family="Verdana" font-size="12">ApeName</text>
	<text x="304" y="85.8" fill="#000000" font-family="Verdana" font-size="12">ApeCat0</text>
	<text x="304" y="102.8" fill="#000000" font-family="Verdana" font-size="12">ApeCat1</text>
	<text x="304" y="119.8" fill="#000000" font-family="Verdana" font-size="12">ApeCat2</text>
	<text x="304" y="136.8" fill="#000000" font-family="Verdana" font-size="12">ApeCat3</text>
	<text x="304" y="153.8" fill="#000000" font-family="Verdana" font-size="12">Libellé</text>
	<text x="304" y="170.8" fill="#000000" font-family="Verdana" font-size="12">Code</text>
</g>

<!-- Entity SOCIETE -->
<g>
	<g>
		<rect x="156" y="195" width="96" height="25" fill="#fdae61" stroke="none" stroke-width="0" opacity="1"/>
		<rect x="156" y="220" width="96" height="93" fill="#fee090" stroke="none" stroke-width="0" opacity="1"/>
		<rect x="156" y="195" width="96" height="118" fill="none" stroke="#f46d43" stroke-width="2" opacity="1"/>
		<line x1="156" y1="220" x2="252" y2="220" stroke="#f46d43" stroke-width="1"/>
	</g>
	<text x="182" y="212.75" fill="#000000" font-family="Verdana" font-size="12">Société</text>
	<text x="161" y="237.8" fill="#000000" font-family="Verdana" font-size="12">Siren</text>
	<line x1="161" y1="240" x2="193" y2="240" stroke="#000000" stroke-width="1"/>
	<text x="161" y="254.8" fill="#000000" font-family="Verdana" font-size="12">Denomiantion</text>
	<text x="161" y="271.8" fill="#000000" font-family="Verdana" font-size="12">Codepostal</text>
	<text x="161" y="288.8" fill="#000000" font-family="Verdana" font-size="12">Town</text>
	<text x="161" y="305.8" fill="#000000" font-family="Verdana" font-size="12">Ape</text>
</g>

<!-- Entity CHIFFRE_AFFIRE -->
<g>
	<g>
		<rect x="457" y="144" width="92" height="25" fill="#fdae61" stroke="none" stroke-width="0" opacity="1"/>
		<rect x="457" y="169" width="92" height="195" fill="#fee090" stroke="none" stroke-width="0" opacity="1"/>
		<rect x="457" y="144" width="92" height="220" fill="none" stroke="#f46d43" stroke-width="2" opacity="1"/>
		<line x1="457" y1="169" x2="549" y2="169" stroke="#f46d43" stroke-width="1"/>
	</g>
	<text x="463" y="161.75" fill="#000000" font-family="Verdana" font-size="12">Chiffre_Affire</text>
	<text x="462" y="186.8" fill="#000000" font-family="Verdana" font-size="12">Siren(FK)</text>
	<line x1="462" y1="189" x2="520" y2="189" stroke="#000000" stroke-width="1"/>
	<text x="462" y="203.8" fill="#000000" font-family="Verdana" font-size="12">FA</text>
	<text x="462" y="220.8" fill="#000000" font-family="Verdana" font-size="12">FD</text>
	<text x="462" y="237.8" fill="#000000" font-family="Verdana" font-size="12">FG</text>
	<text x="462" y="254.8" fill="#000000" font-family="Verdana" font-size="12">FJ</text>
	<text x="462" y="271.8" fill="#000000" font-family="Verdana" font-size="12">FM</text>
	<text x="462" y="288.8" fill="#000000" font-family="Verdana" font-size="12">FN</text>
	<text x="462" y="305.8" fill="#000000" font-family="Verdana" font-size="12">FO</text>
	<text x="462" y="322.8" fill="#000000" font-family="Verdana" font-size="12">FP</text>
	<text x="462" y="339.8" fill="#000000" font-family="Verdana" font-size="12">FQ</text>
	<text x="462" y="356.8" fill="#000000" font-family="Verdana" font-size="12">FR</text>
</g>

<!-- Entity CHARGE_CHIFRE -->
<g>
	<g>
		<rect x="286" y="304" width="96" height="25" fill="#fdae61" stroke="none" stroke-width="0" opacity="1"/>
		<rect x="286" y="329" width="96" height="179" fill="#fee090" stroke="none" stroke-width="0" opacity="1"/>
		<rect x="286" y="304" width="96" height="204" fill="none" stroke="#f46d43" stroke-width="2" opacity="1"/>
		<line x1="286" y1="329" x2="382" y2="329" stroke="#f46d43" stroke-width="1"/>
	</g>
	<text x="292" y="321.75" fill="#000000" font-family="Verdana" font-size="12">Charge_chifre</text>
	<text x="291" y="346.8" fill="#000000" font-family="Verdana" font-size="12">Siren(FK)</text>
	<line x1="291" y1="349" x2="349" y2="349" stroke="#000000" stroke-width="1"/>
	<text x="291" y="363.8" fill="#000000" font-family="Verdana" font-size="12">FS</text>
	<text x="291" y="380.8" fill="#000000" font-family="Verdana" font-size="12">FT</text>
	<text x="291" y="397.8" fill="#000000" font-family="Verdana" font-size="12">FU</text>
	<text x="291" y="414.8" fill="#000000" font-family="Verdana" font-size="12">FV</text>
	<text x="291" y="431.8" fill="#000000" font-family="Verdana" font-size="12">FW</text>
	<text x="291" y="448.8" fill="#000000" font-family="Verdana" font-size="12">FX</text>
	<text x="291" y="465.8" fill="#000000" font-family="Verdana" font-size="12">FY</text>
	<text x="291" y="482.8" fill="#000000" font-family="Verdana" font-size="12">FZ</text>
	<text x="291" y="499.8" fill="#000000" font-family="Verdana" font-size="12">Gz&#45;YX</text>
</g>

<!-- Entity PRODUIT_CHIFRE -->
<g>
	<g>
		<rect x="156" y="474" width="96" height="25" fill="#fdae61" stroke="none" stroke-width="0" opacity="1"/>
		<rect x="156" y="499" width="96" height="263" fill="#fee090" stroke="none" stroke-width="0" opacity="1"/>
		<rect x="156" y="474" width="96" height="288" fill="none" stroke="#f46d43" stroke-width="2" opacity="1"/>
		<line x1="156" y1="499" x2="252" y2="499" stroke="#f46d43" stroke-width="1"/>
	</g>
	<text x="162" y="491.75" fill="#000000" font-family="Verdana" font-size="12">Produit_chifre</text>
	<text x="161" y="516.8" fill="#000000" font-family="Verdana" font-size="12">Siren(FK)</text>
	<line x1="161" y1="519" x2="219" y2="519" stroke="#000000" stroke-width="1"/>
	<text x="161" y="533.8" fill="#000000" font-family="Verdana" font-size="12">GJ</text>
	<text x="161" y="550.8" fill="#000000" font-family="Verdana" font-size="12">GK</text>
	<text x="161" y="567.8" fill="#000000" font-family="Verdana" font-size="12">GL</text>
	<text x="161" y="584.8" fill="#000000" font-family="Verdana" font-size="12">GM</text>
	<text x="161" y="601.8" fill="#000000" font-family="Verdana" font-size="12">GN</text>
	<text x="161" y="618.8" fill="#000000" font-family="Verdana" font-size="12">GO</text>
	<text x="161" y="635.8" fill="#000000" font-family="Verdana" font-size="12">GP</text>
	<text x="161" y="652.8" fill="#000000" font-family="Verdana" font-size="12">HA</text>
	<text x="161" y="669.8" fill="#000000" font-family="Verdana" font-size="12">HB</text>
	<text x="161" y="686.8" fill="#000000" font-family="Verdana" font-size="12">HC</text>
	<text x="161" y="703.8" fill="#000000" font-family="Verdana" font-size="12">HD</text>
	<text x="161" y="720.8" fill="#000000" font-family="Verdana" font-size="12">ZE</text>
	<text x="161" y="737.8" fill="#000000" font-family="Verdana" font-size="12">YY</text>
	<text x="161" y="754.8" fill="#000000" font-family="Verdana" font-size="12">YZ</text>
</g>

<!-- Entity COMPTERESULTA -->
<g>
	<g>
		<rect x="412" y="533" width="182" height="25" fill="#fdae61" stroke="none" stroke-width="0" opacity="1"/>
		<rect x="412" y="558" width="182" height="145" fill="#fee090" stroke="none" stroke-width="0" opacity="1"/>
		<rect x="412" y="533" width="182" height="170" fill="none" stroke="#f46d43" stroke-width="2" opacity="1"/>
		<line x1="412" y1="558" x2="594" y2="558" stroke="#f46d43" stroke-width="1"/>
	</g>
	<text x="457" y="550.75" fill="#000000" font-family="Verdana" font-size="12">CompteResulta</text>
	<text x="417" y="575.8" fill="#000000" font-family="Verdana" font-size="12">Siren(FK)</text>
	<line x1="417" y1="578" x2="475" y2="578" stroke="#000000" stroke-width="1"/>
	<text x="417" y="592.8" fill="#000000" font-family="Verdana" font-size="12">Résultat_exploitation(GG)</text>
	<text x="417" y="609.8" fill="#000000" font-family="Verdana" font-size="12">Résultat_financier(GV)</text>
	<text x="417" y="626.8" fill="#000000" font-family="Verdana" font-size="12">Résultat_avant_impôts(GW)</text>
	<text x="417" y="643.8" fill="#000000" font-family="Verdana" font-size="12">Résultat_exceptionnel(HI)</text>
	<text x="417" y="660.8" fill="#000000" font-family="Verdana" font-size="12">Total_produits(HL)</text>
	<text x="417" y="677.8" fill="#000000" font-family="Verdana" font-size="12">Total_charges(HM)</text>
	<text x="417" y="694.8" fill="#000000" font-family="Verdana" font-size="12">Bénéfice_perte(HN)</text>
</g>
</svg>