<?xml version="1.0" encoding="utf-8"?>
<!-- Generated by Mocodo 4.2.15 -->
<svg width="389" height="390" viewBox="0 0 389 390" xmlns="http://www.w3.org/2000/svg">
<rect x="0" y="0" width="389" height="390" fill="#f5f5f5" stroke="none" stroke-width="0"/>

<!-- Association AVOIRAPE -->
<g>
	<line x1="57" y1="229" x2="57" y2="94" stroke="#bf812d" stroke-width="2"/>
	<line x1="194" y1="94" x2="57" y2="94" stroke="#bf812d" stroke-width="2"/>
	<g>
		<path d="M78 69 a14 14 90 0 1 14 14 V94 h-70 V83 a14 14 90 0 1 14 -14" fill="#dfc27d" stroke="#dfc27d" stroke-width="0"/>
		<path d="M92 94 v11 a14 14 90 0 1 -14 14 H36 a14 14 90 0 1 -14 -14 V94 H70" fill="#f6e8c3" stroke="#f6e8c3" stroke-width="0"/>
		<rect x="22" y="69" width="70" height="50" fill="none" rx="14" stroke="#bf812d" stroke-width="2"/>
		<line x1="22" y1="94" x2="92" y2="94" stroke="#bf812d" stroke-width="1"/>
		<text x="30" y="86.75" fill="#000000" font-family="Verdana" font-size="12">AvoirApe</text>
	</g>
	<text x="62" y="162" fill="#01665e" font-family="Verdana" font-size="12">1,1</text>
	<text x="132" y="111" fill="#01665e" font-family="Verdana" font-size="12">1,N</text>
</g>

<!-- Association COMPTABILITE -->
<g>
	<line x1="326" y1="229" x2="194" y2="229" stroke="#bf812d" stroke-width="2"/>
	<line x1="57" y1="229" x2="194" y2="229" stroke="#bf812d" stroke-width="2"/>
	<line x1="194" y1="347" x2="194" y2="229" stroke="#bf812d" stroke-width="2"/>
	<g>
		<path d="M226 204 a14 14 90 0 1 14 14 V229 h-92 V218 a14 14 90 0 1 14 -14" fill="#dfc27d" stroke="#dfc27d" stroke-width="0"/>
		<path d="M240 229 v11 a14 14 90 0 1 -14 14 H162 a14 14 90 0 1 -14 -14 V229 H92" fill="#f6e8c3" stroke="#f6e8c3" stroke-width="0"/>
		<rect x="148" y="204" width="92" height="50" fill="none" rx="14" stroke="#bf812d" stroke-width="2"/>
		<line x1="148" y1="229" x2="240" y2="229" stroke="#bf812d" stroke-width="1"/>
		<text x="156" y="221.75" fill="#000000" font-family="Verdana" font-size="12">Comptabilite</text>
	</g>
	<text x="246" y="246" fill="#01665e" font-family="Verdana" font-size="12">1,1</text>
	<text x="110" y="246" fill="#01665e" font-family="Verdana" font-size="12">1,N</text>
	<text x="199" y="305" fill="#01665e" font-family="Verdana" font-size="12">1,N</text>
</g>

<!-- Association AVOIRCHIFFRE -->
<g>
	<line x1="194" y1="347" x2="57" y2="347" stroke="#bf812d" stroke-width="2"/>
	<line x1="57" y1="229" x2="57" y2="347" stroke="#bf812d" stroke-width="2"/>
	<g>
		<path d="M86 322 a14 14 90 0 1 14 14 V347 h-86 V336 a14 14 90 0 1 14 -14" fill="#dfc27d" stroke="#dfc27d" stroke-width="0"/>
		<path d="M100 347 v11 a14 14 90 0 1 -14 14 H28 a14 14 90 0 1 -14 -14 V347 H86" fill="#f6e8c3" stroke="#f6e8c3" stroke-width="0"/>
		<rect x="14" y="322" width="86" height="50" fill="none" rx="14" stroke="#bf812d" stroke-width="2"/>
		<line x1="14" y1="347" x2="100" y2="347" stroke="#bf812d" stroke-width="1"/>
		<text x="21" y="339.75" fill="#000000" font-family="Verdana" font-size="12">AvoirChiffre</text>
	</g>
	<text x="105" y="364" fill="#01665e" font-family="Verdana" font-size="12">1,N</text>
	<text x="62" y="305" fill="#01665e" font-family="Verdana" font-size="12">1,1</text>
</g>

<!-- Entity APEGEN -->
<g>
	<g>
		<rect x="159" y="9" width="70" height="25" fill="#80cdc1" stroke="none" stroke-width="0" opacity="1"/>
		<rect x="159" y="34" width="70" height="145" fill="#c7eae5" stroke="none" stroke-width="0" opacity="1"/>
		<rect x="159" y="9" width="70" height="170" fill="none" stroke="#35978f" stroke-width="2" opacity="1"/>
		<line x1="159" y1="34" x2="229" y2="34" stroke="#35978f" stroke-width="1"/>
	</g>
	<text x="170" y="26.75" fill="#000000" font-family="Verdana" font-size="12">ApeGen</text>
	<text x="164" y="51.8" fill="#000000" font-family="Verdana" font-size="12">Ape</text>
	<line x1="164" y1="54" x2="188" y2="54" stroke="#000000" stroke-width="1"/>
	<text x="164" y="68.8" fill="#000000" font-family="Verdana" font-size="12">ApeName</text>
	<text x="164" y="85.8" fill="#000000" font-family="Verdana" font-size="12">ApeCat0</text>
	<text x="164" y="102.8" fill="#000000" font-family="Verdana" font-size="12">ApeCat1</text>
	<text x="164" y="119.8" fill="#000000" font-family="Verdana" font-size="12">ApeCat2</text>
	<text x="164" y="136.8" fill="#000000" font-family="Verdana" font-size="12">ApeCat3</text>
	<text x="164" y="153.8" fill="#000000" font-family="Verdana" font-size="12">Libellé</text>
	<text x="164" y="170.8" fill="#000000" font-family="Verdana" font-size="12">Code</text>
</g>

<!-- Entity SOCIETE -->
<g>
	<g>
		<rect x="9" y="170" width="96" height="25" fill="#80cdc1" stroke="none" stroke-width="0" opacity="1"/>
		<rect x="9" y="195" width="96" height="93" fill="#c7eae5" stroke="none" stroke-width="0" opacity="1"/>
		<rect x="9" y="170" width="96" height="118" fill="none" stroke="#35978f" stroke-width="2" opacity="1"/>
		<line x1="9" y1="195" x2="105" y2="195" stroke="#35978f" stroke-width="1"/>
	</g>
	<text x="35" y="187.75" fill="#000000" font-family="Verdana" font-size="12">Société</text>
	<text x="14" y="212.8" fill="#000000" font-family="Verdana" font-size="12">Siren</text>
	<line x1="14" y1="215" x2="46" y2="215" stroke="#000000" stroke-width="1"/>
	<text x="14" y="229.8" fill="#000000" font-family="Verdana" font-size="12">Denomiantion</text>
	<text x="14" y="246.8" fill="#000000" font-family="Verdana" font-size="12">Codepostal</text>
	<text x="14" y="263.8" fill="#000000" font-family="Verdana" font-size="12">Town</text>
	<text x="14" y="280.8" fill="#000000" font-family="Verdana" font-size="12">Ape</text>
</g>

<!-- Entity COMPTERESULTA -->
<g>
	<g>
		<rect x="272" y="178" width="108" height="25" fill="#80cdc1" stroke="none" stroke-width="0" opacity="1"/>
		<rect x="272" y="203" width="108" height="77" fill="#c7eae5" stroke="none" stroke-width="0" opacity="1"/>
		<rect x="272" y="178" width="108" height="102" fill="none" stroke="#35978f" stroke-width="2" opacity="1"/>
		<line x1="272" y1="203" x2="380" y2="203" stroke="#35978f" stroke-width="1"/>
	</g>
	<text x="280" y="195.75" fill="#000000" font-family="Verdana" font-size="12">CompteResulta</text>
	<text x="277" y="220.8" fill="#000000" font-family="Verdana" font-size="12">Siren</text>
	<line x1="277" y1="223" x2="309" y2="223" stroke="#000000" stroke-width="1"/>
	<text x="277" y="237.8" fill="#000000" font-family="Verdana" font-size="12">Annee</text>
	<text x="277" y="254.8" fill="#000000" font-family="Verdana" font-size="12">Calcul1</text>
	<text x="277" y="271.8" fill="#000000" font-family="Verdana" font-size="12">Calcul2CalculFin</text>
</g>

<!-- Entity CHIFFRESOCIETE -->
<g>
	<g>
		<rect x="132" y="313" width="124" height="25" fill="#80cdc1" stroke="none" stroke-width="0" opacity="1"/>
		<rect x="132" y="338" width="124" height="43" fill="#c7eae5" stroke="none" stroke-width="0" opacity="1"/>
		<rect x="132" y="313" width="124" height="68" fill="none" stroke="#35978f" stroke-width="2" opacity="1"/>
		<line x1="132" y1="338" x2="256" y2="338" stroke="#35978f" stroke-width="1"/>
	</g>
	<text x="152" y="330.75" fill="#000000" font-family="Verdana" font-size="12">ChiffreSociete</text>
	<text x="137" y="355.8" fill="#000000" font-family="Verdana" font-size="12">IdChiffre</text>
	<line x1="137" y1="358" x2="191" y2="358" stroke="#000000" stroke-width="1"/>
	<text x="137" y="372.8" fill="#000000" font-family="Verdana" font-size="12">LesLigneBleuToust</text>
</g>
</svg>