<?xml version="1.0" encoding="utf-8"?>
<!-- Generated by Mocodo 4.3.2 -->
<svg width="617" height="813" viewBox="0 0 617 813" xmlns="http://www.w3.org/2000/svg">
<rect x="0" y="0" width="617" height="813" fill="#ffffbf" stroke="none" stroke-width="0"/>

<!-- Association AVOIR_APE -->
<g>
	<line x1="216" y1="263" x2="216" y2="94" stroke="#74add1" stroke-width="2"/>
	<line x1="350" y1="94" x2="216" y2="94" stroke="#74add1" stroke-width="2"/>
	<g>
		<path d="M241 69 a14 14 90 0 1 14 14 V94 h-78 V83 a14 14 90 0 1 14 -14" fill="#abd9e9" stroke="#abd9e9" stroke-width="0"/>
		<path d="M255 94 v11 a14 14 90 0 1 -14 14 H191 a14 14 90 0 1 -14 -14 V94 H78" fill="#e0f3f8" stroke="#e0f3f8" stroke-width="0"/>
		<rect x="177" y="69" width="78" height="50" fill="none" rx="14" stroke="#74add1" stroke-width="2"/>
		<line x1="177" y1="94" x2="255" y2="94" stroke="#74add1" stroke-width="1"/>
		<text x="185" y="86.75" fill="#000000" font-family="Verdana" font-size="12">Avoir_Ape</text>
	</g>
	<text x="190" y="196" fill="#d73027" font-family="Verdana" font-size="12">1,1</text>
	<text x="284" y="111" fill="#d73027" font-family="Verdana" font-size="12">1,N</text>
</g>

<!-- Association FAIRE_CHIFFRE_AFFER -->
<g>
	<line x1="216" y1="263" x2="518" y2="94" stroke="#74add1" stroke-width="2"/>
	<line x1="518" y1="263" x2="518" y2="94" stroke="#74add1" stroke-width="2"/>
	<g>
		<path d="M567 69 a14 14 90 0 1 14 14 V94 h-126 V83 a14 14 90 0 1 14 -14" fill="#abd9e9" stroke="#abd9e9" stroke-width="0"/>
		<path d="M581 94 v11 a14 14 90 0 1 -14 14 H469 a14 14 90 0 1 -14 -14 V94 H126" fill="#e0f3f8" stroke="#e0f3f8" stroke-width="0"/>
		<rect x="455" y="69" width="126" height="50" fill="none" rx="14" stroke="#74add1" stroke-width="2"/>
		<line x1="455" y1="94" x2="581" y2="94" stroke="#74add1" stroke-width="1"/>
		<text x="462" y="86.75" fill="#000000" font-family="Verdana" font-size="12">faire_Chiffre_Affer</text>
	</g>
	<text x="269" y="248.79" fill="#d73027" font-family="Verdana" font-size="12">1,1</text>
	<text x="523" y="136" fill="#d73027" font-family="Verdana" font-size="12">1,N</text>
</g>

<!-- Association RECEVOUR_SUB -->
<g>
	<line x1="216" y1="263" x2="71" y2="263" stroke="#74add1" stroke-width="2"/>
	<line x1="71" y1="94" x2="71" y2="263" stroke="#74add1" stroke-width="2"/>
	<g>
		<path d="M107 238 a14 14 90 0 1 14 14 V263 h-100 V252 a14 14 90 0 1 14 -14" fill="#abd9e9" stroke="#abd9e9" stroke-width="0"/>
		<path d="M121 263 v11 a14 14 90 0 1 -14 14 H35 a14 14 90 0 1 -14 -14 V263 H100" fill="#e0f3f8" stroke="#e0f3f8" stroke-width="0"/>
		<rect x="21" y="238" width="100" height="50" fill="none" rx="14" stroke="#74add1" stroke-width="2"/>
		<line x1="21" y1="263" x2="121" y2="263" stroke="#74add1" stroke-width="1"/>
		<text x="29" y="255.75" fill="#000000" font-family="Verdana" font-size="12">recevour_Sub</text>
	</g>
	<text x="142" y="255" fill="#d73027" font-family="Verdana" font-size="12">1,1</text>
	<text x="76" y="153" fill="#d73027" font-family="Verdana" font-size="12">1,N</text>
</g>

<!-- Association PAYER_CHARGE -->
<g>
	<line x1="216" y1="263" x2="350" y2="263" stroke="#74add1" stroke-width="2"/>
	<line x1="350" y1="423" x2="350" y2="263" stroke="#74add1" stroke-width="2"/>
	<g>
		<path d="M386 238 a14 14 90 0 1 14 14 V263 h-100 V252 a14 14 90 0 1 14 -14" fill="#abd9e9" stroke="#abd9e9" stroke-width="0"/>
		<path d="M400 263 v11 a14 14 90 0 1 -14 14 H314 a14 14 90 0 1 -14 -14 V263 H100" fill="#e0f3f8" stroke="#e0f3f8" stroke-width="0"/>
		<rect x="300" y="238" width="100" height="50" fill="none" rx="14" stroke="#74add1" stroke-width="2"/>
		<line x1="300" y1="263" x2="400" y2="263" stroke="#74add1" stroke-width="1"/>
		<text x="308" y="255.75" fill="#000000" font-family="Verdana" font-size="12">Payer_Charge</text>
	</g>
	<text x="269" y="280" fill="#d73027" font-family="Verdana" font-size="12">1,1</text>
	<text x="355" y="305" fill="#d73027" font-family="Verdana" font-size="12">1,N</text>
</g>

<!-- Association EXPORTER_PRODUIT -->
<g>
	<line x1="216" y1="263" x2="71" y2="423" stroke="#74add1" stroke-width="2"/>
	<line x1="216" y1="651" x2="71" y2="423" stroke="#74add1" stroke-width="2"/>
	<g>
		<path d="M116 398 a14 14 90 0 1 14 14 V423 h-118 V412 a14 14 90 0 1 14 -14" fill="#abd9e9" stroke="#abd9e9" stroke-width="0"/>
		<path d="M130 423 v11 a14 14 90 0 1 -14 14 H26 a14 14 90 0 1 -14 -14 V423 H118" fill="#e0f3f8" stroke="#e0f3f8" stroke-width="0"/>
		<rect x="12" y="398" width="118" height="50" fill="none" rx="14" stroke="#74add1" stroke-width="2"/>
		<line x1="12" y1="423" x2="130" y2="423" stroke="#74add1" stroke-width="1"/>
		<text x="20" y="415.75" fill="#000000" font-family="Verdana" font-size="12">Exporter_Produit</text>
	</g>
	<text x="142" y="314.55" fill="#d73027" font-family="Verdana" font-size="12">1,1</text>
	<text x="141" y="587.63" fill="#d73027" font-family="Verdana" font-size="12">1,N</text>
</g>

<!-- Association VENDRE_PRODIUT -->
<g>
	<line x1="216" y1="263" x2="216" y2="423" stroke="#74add1" stroke-width="2"/>
	<line x1="216" y1="651" x2="216" y2="423" stroke="#74add1" stroke-width="2"/>
	<g>
		<path d="M256 398 a14 14 90 0 1 14 14 V423 h-108 V412 a14 14 90 0 1 14 -14" fill="#abd9e9" stroke="#abd9e9" stroke-width="0"/>
		<path d="M270 423 v11 a14 14 90 0 1 -14 14 H176 a14 14 90 0 1 -14 -14 V423 H108" fill="#e0f3f8" stroke="#e0f3f8" stroke-width="0"/>
		<rect x="162" y="398" width="108" height="50" fill="none" rx="14" stroke="#74add1" stroke-width="2"/>
		<line x1="162" y1="423" x2="270" y2="423" stroke="#74add1" stroke-width="1"/>
		<text x="169" y="415.75" fill="#000000" font-family="Verdana" font-size="12">Vendre_Prodiut</text>
	</g>
	<text x="221" y="339" fill="#d73027" font-family="Verdana" font-size="12">1,1</text>
	<text x="221" y="490" fill="#d73027" font-family="Verdana" font-size="12">1,N</text>
</g>

<!-- Association COMPTABILITE -->
<g>
	<line x1="518" y1="651" x2="350" y2="651" stroke="#74add1" stroke-width="2"/>
	<line x1="216" y1="263" x2="350" y2="651" stroke="#74add1" stroke-width="2"/>
	<line x1="518" y1="263" x2="350" y2="651" stroke="#74add1" stroke-width="2"/>
	<line x1="216" y1="651" x2="350" y2="651" stroke="#74add1" stroke-width="2"/>
	<line x1="350" y1="423" x2="350" y2="651" stroke="#74add1" stroke-width="2"/>
	<g>
		<path d="M382 626 a14 14 90 0 1 14 14 V651 h-92 V640 a14 14 90 0 1 14 -14" fill="#abd9e9" stroke="#abd9e9" stroke-width="0"/>
		<path d="M396 651 v11 a14 14 90 0 1 -14 14 H318 a14 14 90 0 1 -14 -14 V651 H92" fill="#e0f3f8" stroke="#e0f3f8" stroke-width="0"/>
		<rect x="304" y="626" width="92" height="50" fill="none" rx="14" stroke="#74add1" stroke-width="2"/>
		<line x1="304" y1="651" x2="396" y2="651" stroke="#74add1" stroke-width="1"/>
		<text x="312" y="643.75" fill="#000000" font-family="Verdana" font-size="12">Comptabilite</text>
	</g>
	<text x="401" y="668" fill="#d73027" font-family="Verdana" font-size="12">1,N</text>
	<text x="213.07" y="339" fill="#d73027" font-family="Verdana" font-size="12">1,1</text>
	<text x="445" y="364.63" fill="#d73027" font-family="Verdana" font-size="12">1,N</text>
	<text x="269" y="668" fill="#d73027" font-family="Verdana" font-size="12">1,N</text>
	<text x="355" y="550" fill="#d73027" font-family="Verdana" font-size="12">1,N</text>
</g>

<!-- Entity SUBVANTION -->
<g>
	<g>
		<rect x="9" y="52" width="124" height="25" fill="#fdae61" stroke="none" stroke-width="0" opacity="1"/>
		<rect x="9" y="77" width="124" height="59" fill="#fee090" stroke="none" stroke-width="0" opacity="1"/>
		<rect x="9" y="52" width="124" height="84" fill="none" stroke="#f46d43" stroke-width="2" opacity="1"/>
		<line x1="9" y1="77" x2="133" y2="77" stroke="#f46d43" stroke-width="1"/>
	</g>
	<text x="37" y="69.75" fill="#000000" font-family="Verdana" font-size="12">Subvantion</text>
	<text x="14" y="94.8" fill="#000000" font-family="Verdana" font-size="12">Siren_FK</text>
	<line x1="14" y1="97" x2="69" y2="97" stroke="#000000" stroke-width="1"/>
	<text x="14" y="111.8" fill="#000000" font-family="Verdana" font-size="12">Subvantion_Chifre</text>
	<text x="14" y="128.8" fill="#000000" font-family="Verdana" font-size="12">Annee</text>
</g>

<!-- Entity APE_GEN -->
<g>
	<g>
		<rect x="311" y="9" width="78" height="25" fill="#fdae61" stroke="none" stroke-width="0" opacity="1"/>
		<rect x="311" y="34" width="78" height="145" fill="#fee090" stroke="none" stroke-width="0" opacity="1"/>
		<rect x="311" y="9" width="78" height="170" fill="none" stroke="#f46d43" stroke-width="2" opacity="1"/>
		<line x1="311" y1="34" x2="389" y2="34" stroke="#f46d43" stroke-width="1"/>
	</g>
	<text x="322" y="26.75" fill="#000000" font-family="Verdana" font-size="12">Ape_Gen</text>
	<text x="316" y="51.8" fill="#000000" font-family="Verdana" font-size="12">Ape</text>
	<line x1="316" y1="54" x2="340" y2="54" stroke="#000000" stroke-width="1"/>
	<text x="316" y="68.8" fill="#000000" font-family="Verdana" font-size="12">Ape_Name</text>
	<text x="316" y="85.8" fill="#000000" font-family="Verdana" font-size="12">Ape_Cat0</text>
	<text x="316" y="102.8" fill="#000000" font-family="Verdana" font-size="12">Ape_Cat1</text>
	<text x="316" y="119.8" fill="#000000" font-family="Verdana" font-size="12">Ape_Cat2</text>
	<text x="316" y="136.8" fill="#000000" font-family="Verdana" font-size="12">Ape_Cat3</text>
	<text x="316" y="153.8" fill="#000000" font-family="Verdana" font-size="12">Libellé</text>
	<text x="316" y="170.8" fill="#000000" font-family="Verdana" font-size="12">Code</text>
</g>

<!-- Entity SOCIETE -->
<g>
	<g>
		<rect x="168" y="204" width="96" height="25" fill="#fdae61" stroke="none" stroke-width="0" opacity="1"/>
		<rect x="168" y="229" width="96" height="93" fill="#fee090" stroke="none" stroke-width="0" opacity="1"/>
		<rect x="168" y="204" width="96" height="118" fill="none" stroke="#f46d43" stroke-width="2" opacity="1"/>
		<line x1="168" y1="229" x2="264" y2="229" stroke="#f46d43" stroke-width="1"/>
	</g>
	<text x="194" y="221.75" fill="#000000" font-family="Verdana" font-size="12">Société</text>
	<text x="173" y="246.8" fill="#000000" font-family="Verdana" font-size="12">Siren</text>
	<line x1="173" y1="249" x2="205" y2="249" stroke="#000000" stroke-width="1"/>
	<text x="173" y="263.8" fill="#000000" font-family="Verdana" font-size="12">Denomiantion</text>
	<text x="173" y="280.8" fill="#000000" font-family="Verdana" font-size="12">Codepostal</text>
	<text x="173" y="297.8" fill="#000000" font-family="Verdana" font-size="12">Town</text>
	<text x="173" y="314.8" fill="#000000" font-family="Verdana" font-size="12">Ape</text>
</g>

<!-- Entity CHIFFRE_AFFIRE -->
<g>
	<g>
		<rect x="472" y="144" width="92" height="25" fill="#fdae61" stroke="none" stroke-width="0" opacity="1"/>
		<rect x="472" y="169" width="92" height="213" fill="#fee090" stroke="none" stroke-width="0" opacity="1"/>
		<rect x="472" y="144" width="92" height="238" fill="none" stroke="#f46d43" stroke-width="2" opacity="1"/>
		<line x1="472" y1="169" x2="564" y2="169" stroke="#f46d43" stroke-width="1"/>
	</g>
	<text x="478" y="161.75" fill="#000000" font-family="Verdana" font-size="12">Chiffre_Affire</text>
	<text x="477" y="186.8" fill="#000000" font-family="Verdana" font-size="12">Siren_FK</text>
	<line x1="477" y1="189" x2="532" y2="189" stroke="#000000" stroke-width="1"/>
	<text x="477" y="203.8" fill="#000000" font-family="Verdana" font-size="12">FA</text>
	<text x="477" y="220.8" fill="#000000" font-family="Verdana" font-size="12">FD</text>
	<text x="477" y="237.8" fill="#000000" font-family="Verdana" font-size="12">FG</text>
	<text x="477" y="254.8" fill="#000000" font-family="Verdana" font-size="12">FJ</text>
	<text x="477" y="271.8" fill="#000000" font-family="Verdana" font-size="12">FM</text>
	<text x="477" y="288.8" fill="#000000" font-family="Verdana" font-size="12">FN</text>
	<text x="477" y="305.8" fill="#000000" font-family="Verdana" font-size="12">FO</text>
	<text x="477" y="322.8" fill="#000000" font-family="Verdana" font-size="12">FP</text>
	<text x="477" y="339.8" fill="#000000" font-family="Verdana" font-size="12">FQ</text>
	<text x="477" y="356.8" fill="#000000" font-family="Verdana" font-size="12">FR</text>
	<text x="477" y="373.8" fill="#000000" font-family="Verdana" font-size="12">Annee</text>
</g>

<!-- Entity CHARGE_CHIFRE -->
<g>
	<g>
		<rect x="302" y="313" width="96" height="25" fill="#fdae61" stroke="none" stroke-width="0" opacity="1"/>
		<rect x="302" y="338" width="96" height="195" fill="#fee090" stroke="none" stroke-width="0" opacity="1"/>
		<rect x="302" y="313" width="96" height="220" fill="none" stroke="#f46d43" stroke-width="2" opacity="1"/>
		<line x1="302" y1="338" x2="398" y2="338" stroke="#f46d43" stroke-width="1"/>
	</g>
	<text x="308" y="330.75" fill="#000000" font-family="Verdana" font-size="12">Charge_chifre</text>
	<text x="307" y="355.8" fill="#000000" font-family="Verdana" font-size="12">Siren_FK</text>
	<line x1="307" y1="358" x2="362" y2="358" stroke="#000000" stroke-width="1"/>
	<text x="307" y="372.8" fill="#000000" font-family="Verdana" font-size="12">FS</text>
	<text x="307" y="389.8" fill="#000000" font-family="Verdana" font-size="12">FT</text>
	<text x="307" y="406.8" fill="#000000" font-family="Verdana" font-size="12">FU</text>
	<text x="307" y="423.8" fill="#000000" font-family="Verdana" font-size="12">FV</text>
	<text x="307" y="440.8" fill="#000000" font-family="Verdana" font-size="12">FW</text>
	<text x="307" y="457.8" fill="#000000" font-family="Verdana" font-size="12">FX</text>
	<text x="307" y="474.8" fill="#000000" font-family="Verdana" font-size="12">FY</text>
	<text x="307" y="491.8" fill="#000000" font-family="Verdana" font-size="12">FZ</text>
	<text x="307" y="508.8" fill="#000000" font-family="Verdana" font-size="12">Gz_YX</text>
	<text x="307" y="525.8" fill="#000000" font-family="Verdana" font-size="12">Annee</text>
</g>

<!-- Entity PRODUIT_CHIFRE -->
<g>
	<g>
		<rect x="168" y="498" width="96" height="25" fill="#fdae61" stroke="none" stroke-width="0" opacity="1"/>
		<rect x="168" y="523" width="96" height="281" fill="#fee090" stroke="none" stroke-width="0" opacity="1"/>
		<rect x="168" y="498" width="96" height="306" fill="none" stroke="#f46d43" stroke-width="2" opacity="1"/>
		<line x1="168" y1="523" x2="264" y2="523" stroke="#f46d43" stroke-width="1"/>
	</g>
	<text x="174" y="515.75" fill="#000000" font-family="Verdana" font-size="12">Produit_chifre</text>
	<text x="173" y="540.8" fill="#000000" font-family="Verdana" font-size="12">Siren_FK</text>
	<line x1="173" y1="543" x2="228" y2="543" stroke="#000000" stroke-width="1"/>
	<text x="173" y="557.8" fill="#000000" font-family="Verdana" font-size="12">GJ</text>
	<text x="173" y="574.8" fill="#000000" font-family="Verdana" font-size="12">GK</text>
	<text x="173" y="591.8" fill="#000000" font-family="Verdana" font-size="12">GL</text>
	<text x="173" y="608.8" fill="#000000" font-family="Verdana" font-size="12">GM</text>
	<text x="173" y="625.8" fill="#000000" font-family="Verdana" font-size="12">GN</text>
	<text x="173" y="642.8" fill="#000000" font-family="Verdana" font-size="12">GO</text>
	<text x="173" y="659.8" fill="#000000" font-family="Verdana" font-size="12">GP</text>
	<text x="173" y="676.8" fill="#000000" font-family="Verdana" font-size="12">HA</text>
	<text x="173" y="693.8" fill="#000000" font-family="Verdana" font-size="12">HB</text>
	<text x="173" y="710.8" fill="#000000" font-family="Verdana" font-size="12">HC</text>
	<text x="173" y="727.8" fill="#000000" font-family="Verdana" font-size="12">HD</text>
	<text x="173" y="744.8" fill="#000000" font-family="Verdana" font-size="12">ZE</text>
	<text x="173" y="761.8" fill="#000000" font-family="Verdana" font-size="12">YY</text>
	<text x="173" y="778.8" fill="#000000" font-family="Verdana" font-size="12">YZ</text>
	<text x="173" y="795.8" fill="#000000" font-family="Verdana" font-size="12">Annee</text>
</g>

<!-- Entity COMPTE_RESULTA -->
<g>
	<g>
		<rect x="428" y="558" width="180" height="25" fill="#fdae61" stroke="none" stroke-width="0" opacity="1"/>
		<rect x="428" y="583" width="180" height="161" fill="#fee090" stroke="none" stroke-width="0" opacity="1"/>
		<rect x="428" y="558" width="180" height="186" fill="none" stroke="#f46d43" stroke-width="2" opacity="1"/>
		<line x1="428" y1="583" x2="608" y2="583" stroke="#f46d43" stroke-width="1"/>
	</g>
	<text x="468" y="575.75" fill="#000000" font-family="Verdana" font-size="12">Compte_Resulta</text>
	<text x="433" y="600.8" fill="#000000" font-family="Verdana" font-size="12">Siren_FK</text>
	<line x1="433" y1="603" x2="488" y2="603" stroke="#000000" stroke-width="1"/>
	<text x="433" y="617.8" fill="#000000" font-family="Verdana" font-size="12">Annee</text>
	<text x="433" y="634.8" fill="#000000" font-family="Verdana" font-size="12">Résultat_exploitation_GG</text>
	<text x="433" y="651.8" fill="#000000" font-family="Verdana" font-size="12">Résultat_financier_GV</text>
	<text x="433" y="668.8" fill="#000000" font-family="Verdana" font-size="12">Résultat_avant_impôts_GW</text>
	<text x="433" y="685.8" fill="#000000" font-family="Verdana" font-size="12">Résultat_exceptionnel_HI</text>
	<text x="433" y="702.8" fill="#000000" font-family="Verdana" font-size="12">Total_produits_HL</text>
	<text x="433" y="719.8" fill="#000000" font-family="Verdana" font-size="12">Total_charges_HM</text>
	<text x="433" y="736.8" fill="#000000" font-family="Verdana" font-size="12">Bénéfice_perte_HN</text>
</g>
</svg>